<?xml version="1.0" encoding="utf-8"?>
<!-- Svg Vector Icons : http://www.onlinewebfonts.com/icon -->
<!DOCTYPE svg PUBLIC "-//W3C//DTD SVG 1.1//EN" "http://www.w3.org/Graphics/SVG/1.1/DTD/svg11.dtd">
<svg version="1.1" xmlns="http://www.w3.org/2000/svg" xmlns:xlink="http://www.w3.org/1999/xlink" x="0px" y="0px" viewBox="0 0 1000 1000" enable-background="new 0 0 1000 1000" xml:space="preserve">
<metadata> Svg Vector Icons : http://www.onlinewebfonts.com/icon </metadata>
<g><g transform="translate(0.000000,511.000000) scale(0.100000,-0.100000)"><path d="M4034.6,4607.3c-42.9-16.4-161.6-71.6-263.9-124.8c-623.9-323.2-1104.5-893.9-1315.2-1562.7c-188.2-595.2-153.4-1317.3,92-1859.3c32.7-71.6,59.3-133,59.3-135c0-4.1-61.4-12.3-135-20.5c-204.5-20.5-519.5-102.3-720-186.1C673.9,272.9,3-831.6,111.4-1981.2c12.3-133,24.6-243.4,28.6-247.5c4.1-4.1,14.3,77.7,22.5,182.1C254.6-858.2,1314.2,62.3,2525.1,9.1c396.8-18.4,724.1-120.7,1037.1-325.2c147.3-96.1,378.4-308.9,472.5-431.6l43-59.3l151.4,83.9l151.4,83.9l-14.3,85.9c-22.5,120.7,8.2,284.3,75.7,409.1c63.4,116.6,210.7,245.4,323.2,282.3l71.6,24.5v171.8c0,161.6-2.1,171.8-45,180c-382.5,73.6-568.6,143.2-816.1,302.7c-1319.3,850.9-1288.6,2939.3,53.2,3749.3C4155.3,4642,4157.3,4652.3,4034.6,4607.3z"/><path d="M5977.8,4564.3C6344,4343.4,6661,3967,6828.7,3553.8c409.1-1004.3,63.4-2176.4-808-2740.9c-243.4-155.5-431.6-225-810-298.6c-45-8.2-47-18.4-47-180V162.5l71.6-24.5C5491,54.1,5677.1-265,5634.2-547.3l-14.3-92l151.4-83.9l151.4-83.9l43,59.3c94.1,122.7,325.2,335.4,472.5,431.6c178,116.6,396.8,212.7,623.9,274.1c235.2,65.4,758.9,65.4,1012.5,0C9066.5-291.6,9764-1083.2,9837.6-2046.6c8.2-104.3,18.4-186.2,22.5-182.1c4.1,4.1,16.4,114.5,28.6,247.5C10003.3-755.9,9234.2,405.9,8054,790.4c-169.8,55.2-509.3,124.8-613.6,124.8c-57.3,0-57.3,2.1-8.2,98.2c63.4,126.8,141.1,372.3,186.1,593.2c53.2,263.9,57.3,703.6,10.2,975.7C7483.3,3412.7,6933,4138.9,6178.3,4505C5898,4640,5806,4666.6,5977.8,4564.3z"/><path d="M4693.3,1978.8c-182-24.5-392.7-77.7-552.3-137c-145.2-55.2-413.2-190.2-486.8-247.5l-47.1-34.8l114.5-139.1c63.4-77.7,126.8-143.2,143.2-149.3c14.3-6.1,65.5,14.3,114.5,43c347.7,220.9,908.2,323.2,1343.9,247.5c272-47.1,517.5-135,724.1-259.8l77.7-47l53.2,51.1c30.7,26.6,90,94.1,135,149.3l81.8,102.3l-49.1,36.8c-83.8,63.4-390.7,214.8-548.2,267.9C5470.5,1972.7,5006.2,2021.8,4693.3,1978.8z"/><path d="M2545.5-469.6c0-358,94.1-769.1,247.5-1073.9c173.9-347.7,474.5-703.6,775.2-914.3c147.3-102.3,329.3-206.6,362-206.6c18.4,0,77.7,137.1,118.6,274.1l26.6,88l-186.1,124.8c-329.3,214.8-568.6,486.8-738.4,844.8c-124.8,257.7-178,466.4-190.2,758.9l-12.3,239.3l-94.1,20.5c-51.1,10.2-143.2,26.6-200.5,34.8L2545.5-265V-469.6z"/><path d="M7235.8-301.8c-79.8-14.3-155.4-30.7-165.7-38.9c-10.2-6.1-24.6-110.4-28.6-231.1c-6.1-124.8-30.7-296.6-57.3-394.8c-53.2-210.7-192.3-511.4-315-683.2c-124.8-175.9-402.9-435.7-589.1-552.3c-87.9-53.2-159.5-102.3-159.5-106.4c0-42.9,133-355.9,151.4-355.9c14.3,0,106.3,49.1,204.5,108.4C7010.8-2110,7452.6-1324.6,7454.6-459.3C7454.6-244.6,7473-258.9,7235.8-301.8z"/><path d="M4388.5-995.2c-100.2-57.3-143.2-94.1-137.1-114.5c4.1-16.4,32.7-94.1,59.3-173.9c79.8-227.1,102.3-405,90-687.3c-22.5-544.1-239.3-1022.7-634.1-1417.5c-691.4-689.3-1724.3-877.5-2554.8-468.4c-225,112.5-225,100.2-2-59.3c458.2-329.3,985.9-497,1570.9-495c560.5,2.1,1035,149.3,1503.4,464.3c186.1,126.8,482.7,409.1,609.5,580.9c51.1,71.6,100.2,128.9,106.4,128.9c6.1,0,55.2-57.3,106.4-128.9c126.8-171.8,423.4-454.1,609.5-580.9c304.8-204.6,623.9-341.6,987.9-419.3c315-67.5,779.3-63.4,1092.3,10.2c396.8,92,730.2,243.4,1045.2,478.6c79.8,59.3,147.3,112.5,147.3,114.5c0,4.1-90-38.9-198.4-92.1c-1212.9-599.3-2728.7,92.1-3127.5,1427.7c-42.9,145.2-55.2,239.3-63.4,460.2c-12.3,310.9,18.4,519.6,110.5,748.6c28.6,71.6,49.1,133,45,137c-4.1,4.1-71.6,43-149.3,88l-141.1,81.8l-88-65.5c-116.6-90-214.8-120.7-376.4-120.7c-161.6,0-259.8,30.7-376.4,120.7l-88,67.5L4388.5-995.2z"/></g></g>
</svg>